<?xml version="1.0" encoding="iso-8859-1"?>
<!-- Generator: Adobe Illustrator 21.0.0, SVG Export Plug-In . SVG Version: 6.00 Build 0)  -->
<svg version="1.1" id="Layer_1" xmlns="http://www.w3.org/2000/svg" xmlns:xlink="http://www.w3.org/1999/xlink" x="0px" y="0px"
	 width="595.276px" height="595.276px" viewBox="0 0 595.276 595.276" enable-background="new 0 0 595.276 595.276"
	 xml:space="preserve">
<g>
	<defs>
		<rect id="SVGID_47_" x="0" width="595.276" height="595.276"/>
	</defs>
	<clipPath id="SVGID_2_">
		<use xlink:href="#SVGID_47_"  overflow="visible"/>
	</clipPath>
	<g clip-path="url(#SVGID_2_)">
		<path fill="#F7E5C1" d="M278.969,55.128c-5.648,1.359-11.448,2.921-16.008,6.521c-4.56,3.6-7.582,9.779-5.8,15.308
			c7.627,1.776,15.437,2.612,23.224,3.445c18.381,1.966,36.988,3.929,55.291,1.334c6.732-0.954,13.561-2.603,19.135-6.498
			c5.573-3.895,9.692-10.432,9.132-17.208C361.648,30.291,294.779,51.324,278.969,55.128z"/>
		<path fill="#F7E5C1" d="M297.861,124.231c-14.824,0.159-30.541,7.01-36.957,20.375c-3.781,7.877-3.945,16.951-3.765,25.687
			c0.264,12.762,1.405,26.352,9.141,36.506c6.199,8.138,15.775,12.887,25.152,16.978c10.246,4.47,21.314,8.574,32.354,6.819
			c20.969-3.333,33.129-26.245,35.716-47.32C364.27,144.436,334.204,123.841,297.861,124.231z"/>
		<path fill="#FFFFFF" d="M139.378,125.492c-2.089,98.307-55.018,187.377-106.35,271.244
			c60.914-27.206,121.828-54.413,182.742-81.619c25.843,76.422,10.622,165.424-39.149,228.914
			c83.576,20.115,170.74,25.223,256.094,15.009c13.615-1.629,29.057-4.856,35.849-16.768c6.15-10.785,2.59-24.367-2.021-35.894
			c-22.082-55.205-65.899-106.443-59.253-165.528c48.515,36.066,110.715,53.229,170.861,47.147
			c-44.92-70.577-64.469-156.94-54.322-239.982c2.028-16.599,5.166-33.706,0.606-49.795c-5.726-20.201-24.292-36.12-45.13-38.696
			c-20.838-2.576-42.722,8.344-53.194,26.543c-7.635,13.269-9.25,29.031-10.94,44.246c-5.883,52.968-20.08,113.428-67.813,137.13
			c-28.383,14.093-63.84,10.775-90.921-5.68c-52.245-31.746-55.418-88.719-64.14-142.883c-2.015-12.513-3.457-41.632-18.59-46.686
			C145.106,62.642,139.726,109.107,139.378,125.492z"/>
		<path fill="#5B96E4" d="M304.197,302.157c8.805-1.318,17.122-4.811,25.229-8.491c18.059-8.2,35.621-17.495,52.556-27.818
			c3.172,25.138-15.041,47.405-32.069,66.168c-10.743,11.838-21.485,23.676-32.228,35.513
			c-25.961-25.957-44.085-55.718-63.829-86.254C265.878,295.96,285.081,305.019,304.197,302.157z"/>
		<g>
			<path fill="none" stroke="#000000" stroke-width="7.418" stroke-miterlimit="10" d="M302.933,114.656
				c0,0-50.787,12.655-56.563,43.933c-4.06,21.986,9.523,44.08,27.531,57.333c21.374,15.73,54.969,20.249,72.371,0.212
				c10.37-11.94,24.024-52.856,17.609-75.955C354.712,107.166,302.933,114.656,302.933,114.656z"/>
			<path fill="none" stroke="#000000" stroke-width="7.418" stroke-miterlimit="10" d="M345.533,38.229
				c-27.362-2.595-55.385,2.134-80.38,13.565c-9.734,4.452-20.345,12.246-19.452,22.913c1.125,13.429,18.534,17.932,32.006,17.576
				c27.179-0.719,54.201-6.943,78.955-18.186c3.437-1.561,6.938-3.299,9.362-6.193c6.768-8.082,1.422-21.421-7.777-26.571
				c-9.199-5.149-20.413-4.499-30.925-3.703"/>
			<path fill="none" stroke="#000000" stroke-width="7.418" stroke-miterlimit="10" d="M414.612,116.476
				c1.346-23.121,10.111-48.485,31.033-58.418c27.104-12.868,60.284,8.239,72.207,35.772c11.923,27.533,8.977,58.858,7.677,88.833
				c-3.132,72.212,5.736,147.994,45.537,208.329c-60.942,12.938-117.213-32.851-162.735-75.385
				c13.795,59.593,27.59,119.186,41.385,178.779c2.452,10.593,4.76,22.347-0.555,31.832c-5.81,10.37-18.591,14.269-30.229,16.687
				c-74.227,15.42-151.069,7.701-226.481-0.08c-18.669-1.926-40.634-6.111-48.317-23.235c-9.042-20.153,8.213-41.416,21.754-58.866
				c32.045-41.295,48.758-94.217,46.243-146.426c-31.258,60.116-128.364,90.71-195.005,78.467
				c63.307-87.212,105.197-191.577,99.389-299.187c-0.37-6.863-0.851-13.987,1.675-20.379c6.661-16.855,46.822-19.158,60.922-7.773
				s18.793,30.853,19.483,48.963s-1.713,36.487,1.974,54.231c10.647,51.244,90.554,115.03,138.72,92.892
				C403.56,231.969,414.612,182.417,414.612,116.476z"/>
			<path fill="none" stroke="#000000" stroke-width="7.418" stroke-miterlimit="10" d="M314.205,365.393
				c18.048-16.278,35.123-33.635,51.103-51.948c7.661-8.779,15.206-18.007,19.264-28.93s4.102-23.972-2.621-33.488
				c-13.38,17.605-30.903,32.039-50.744,41.801c-9.638,4.742-20.101,8.443-30.84,8.199c-28.464-0.645-46.777-26.457-62.616-46.3
				C229.089,308.023,277.527,334.942,314.205,365.393z"/>
		</g>
	</g>
</g>
</svg>
