<?xml version="1.0" encoding="utf-8"?>
<!-- Generator: Adobe Illustrator 24.3.0, SVG Export Plug-In . SVG Version: 6.00 Build 0)  -->
<svg version="1.1" id="Layer_1" xmlns="http://www.w3.org/2000/svg" xmlns:xlink="http://www.w3.org/1999/xlink" x="0px" y="0px"
	 viewBox="0 0 300 300" enable-background="new 0 0 300 300" xml:space="preserve">
<g>
	<g>
		<g>
			<rect x="106.83" y="150.001" fill="#F4F4F4" width="89.413" height="104.817"/>
		</g>
		<g>
			<path fill="#A880B2" d="M207.929,140.399c0,5.304-4.298,9.602-9.599,9.602h-93.625c-5.301,0-9.599-4.298-9.599-9.602l0,0
				c0-5.298,4.298-9.596,9.599-9.596h93.625C203.631,130.803,207.929,135.1,207.929,140.399L207.929,140.399z"/>
		</g>
		<g>
			<path fill="#B999C1" d="M106.81,140.399c0-5.298,4.298-9.596,9.599-9.596h-11.706c-5.301,0-9.599,4.298-9.599,9.596
				c0,5.304,4.298,9.602,9.599,9.602h11.706C111.108,150.001,106.81,145.703,106.81,140.399z"/>
		</g>
		<g>
			<polygon fill="#F4F4F4" points="189.404,82.053 151.517,57.807 113.63,82.053 113.63,130.803 189.404,130.803 			"/>
		</g>
		<g>
			<polygon fill="#F9F9F9" points="156.046,60.704 151.515,57.807 113.628,82.053 113.628,130.803 122.69,130.803 122.69,82.053 			
				"/>
		</g>
		<g>
			<path fill="#E5E5E4" d="M140.451,45.597h6.519v13.977c0,0.367,0.055,0.716,0.136,1.054l4.41-2.821l4.41,2.821
				c0.081-0.337,0.136-0.687,0.136-1.054V45.597h6.521c2.511,0,4.546-2.036,4.546-4.546c0-2.51-2.035-4.547-4.546-4.547h-6.521
				v-4.712c0-2.51-2.035-4.546-4.546-4.546c-2.511,0-4.546,2.037-4.546,4.546v4.712h-6.519c-2.512,0-4.547,2.036-4.547,4.547
				C135.905,43.561,137.94,45.597,140.451,45.597z"/>
		</g>
		<g>
			<polygon fill="#E5E5E4" points="60.125,254.818 106.81,254.818 106.81,161.367 60.125,187.13 			"/>
		</g>
		<g>
			<polygon fill="#E5E5E4" points="242.908,254.818 196.222,254.818 196.222,161.367 242.908,187.13 			"/>
		</g>
		<g>
			<path fill="#FE6F80" d="M170.54,96.16c0-5.257-4.258-9.513-9.512-9.513c-5.105,0-9.256,4.02-9.491,9.069l-0.033-0.018
				l-0.013,0.006c-0.237-5.044-4.388-9.057-9.489-9.057c-5.254,0-9.512,4.256-9.512,9.513c0,2.332,0.845,4.469,2.244,6.127h-0.003
				l16.784,15.877l16.787-15.877h-0.006C169.695,100.629,170.54,98.492,170.54,96.16z"/>
		</g>
		<g>
			<path fill="#FFA1AA" d="M144.733,102.287h0.003c-1.399-1.657-2.243-3.794-2.243-6.127c0-3.416,1.816-6.388,4.521-8.069
				c-1.456-0.906-3.167-1.445-5.011-1.445c-5.254,0-9.512,4.256-9.512,9.513c0,2.332,0.845,4.469,2.244,6.127h-0.003l16.784,15.877
				l5.001-4.73L144.733,102.287z"/>
		</g>
		<g>
			<path fill="#A880B2" d="M180.381,254.818v-39.853c0-15.936-12.914-28.847-28.844-28.847c-15.932,0-28.846,12.911-28.846,28.847
				v39.853H30.277v13.391h239.446v-13.391H180.381z"/>
		</g>
		<g>
			<path fill="#B999C1" d="M157.409,186.716c-1.896-0.391-3.86-0.598-5.872-0.598c-15.932,0-28.846,12.911-28.846,28.847v39.853
				h11.745v-39.853C134.435,201.042,144.293,189.433,157.409,186.716z"/>
		</g>
		<g>
			<rect x="133.708" y="164.842" fill="#A880B2" width="35.652" height="6.69"/>
		</g>
		<g>
			<path fill="#FE6F80" d="M268.364,74.375H265.1v-3.267c0-2.427-1.965-4.389-4.389-4.389c-2.421,0-4.387,1.962-4.387,4.389v3.267
				h-3.265c-2.427,0-4.39,1.965-4.39,4.386c0,2.427,1.963,4.387,4.39,4.387h3.265v3.268c0,2.421,1.966,4.387,4.387,4.387
				c2.424,0,4.389-1.965,4.389-4.387v-3.268h3.265c2.427,0,4.389-1.96,4.389-4.387C272.754,76.34,270.792,74.375,268.364,74.375z"/>
		</g>
		<g>
			<path fill="#FE6F80" d="M239.26,94.988h-3.265V91.72c0-2.427-1.965-4.386-4.389-4.386c-2.422,0-4.387,1.959-4.387,4.386v3.268
				h-3.265c-2.427,0-4.389,1.966-4.389,4.387c0,2.427,1.963,4.387,4.389,4.387h3.265v3.268c0,2.421,1.965,4.387,4.387,4.387
				c2.424,0,4.389-1.966,4.389-4.387v-3.268h3.265c2.427,0,4.389-1.96,4.389-4.387C243.649,96.953,241.687,94.988,239.26,94.988z"/>
		</g>
		<g>
			<path fill="#FE6F80" d="M48.987,163.8h-3.265v-3.268c0-2.427-1.965-4.393-4.389-4.393c-2.421,0-4.387,1.966-4.387,4.393v3.268
				h-3.265c-2.427,0-4.39,1.96-4.39,4.386c0,2.421,1.963,4.387,4.39,4.387h3.265v3.268c0,2.421,1.966,4.387,4.387,4.387
				c2.424,0,4.389-1.965,4.389-4.387v-3.268h3.265c2.427,0,4.389-1.965,4.389-4.387C53.376,165.76,51.414,163.8,48.987,163.8z"/>
		</g>
		<g>
			<path fill="#A880B2" d="M260.774,120.78c0,3.297-2.674,5.973-5.97,5.973c-3.299,0-5.973-2.676-5.973-5.973
				c0-3.297,2.674-5.973,5.973-5.973C258.099,114.807,260.774,117.483,260.774,120.78z"/>
		</g>
		<g>
			<path fill="#A880B2" d="M72.068,153.156c0,3.297-2.674,5.973-5.97,5.973c-3.299,0-5.973-2.676-5.973-5.973
				c0-3.297,2.674-5.973,5.973-5.973C69.394,147.183,72.068,149.859,72.068,153.156z"/>
		</g>
		<g>
			<path fill="#A880B2" d="M57.193,130.738c0,3.297-2.674,5.973-5.97,5.973c-3.299,0-5.973-2.676-5.973-5.973
				c0-3.297,2.674-5.973,5.973-5.973C54.519,124.765,57.193,127.44,57.193,130.738z"/>
		</g>
		<g>
			<rect x="30.277" y="254.818" fill="#B999C1" width="14.973" height="13.391"/>
		</g>
		<g>
			<path fill="#B999C1" d="M252.998,120.78c0-2.563,1.622-4.73,3.889-5.576c-0.651-0.243-1.348-0.397-2.084-0.397
				c-3.299,0-5.973,2.676-5.973,5.973c0,3.297,2.674,5.973,5.973,5.973c0.735,0,1.432-0.154,2.084-0.396
				C254.62,125.51,252.998,123.344,252.998,120.78z"/>
		</g>
		<g>
			<path fill="#B999C1" d="M49.417,130.803c0-2.564,1.622-4.73,3.889-5.577c-0.651-0.243-1.348-0.397-2.084-0.397
				c-3.299,0-5.973,2.676-5.973,5.973c0,3.297,2.674,5.973,5.973,5.973c0.736,0,1.432-0.154,2.084-0.397
				C51.039,135.533,49.417,133.366,49.417,130.803z"/>
		</g>
		<g>
			<path fill="#B999C1" d="M64.292,153.156c0-2.564,1.622-4.73,3.889-5.577c-0.651-0.243-1.348-0.397-2.084-0.397
				c-3.299,0-5.973,2.676-5.973,5.973c0,3.297,2.674,5.973,5.973,5.973c0.736,0,1.432-0.154,2.084-0.397
				C65.914,157.886,64.292,155.719,64.292,153.156z"/>
		</g>
		<g>
			<polygon fill="#EFEFEF" points="60.125,187.13 60.125,254.818 72.068,254.818 72.068,180.536 			"/>
		</g>
		<g>
			<rect x="106.83" y="150.001" fill="#F9F9F9" width="9.298" height="104.817"/>
		</g>
		<g>
			<rect x="133.708" y="164.842" fill="#B999C1" width="13.487" height="6.69"/>
		</g>
		<g>
			<path fill="#EFEFEF" d="M151.515,27.245c-2.51,0-4.545,2.037-4.545,4.546v4.712h-6.519c-2.512,0-4.547,2.036-4.547,4.547
				c0,2.51,2.035,4.546,4.547,4.546h6.519v13.977c0,0.367,0.055,0.716,0.136,1.054l4.409-2.818V27.245z"/>
		</g>
	</g>
	<g>
		<g>
			<path fill="#161616" d="M269.723,272.755H73.461c-2.511,0-4.546-2.036-4.546-4.547s2.035-4.546,4.546-4.546h191.716v-4.298
				H34.823v4.298h18.492c2.512,0,4.547,2.036,4.547,4.546s-2.035,4.547-4.547,4.547H30.277c-2.511,0-4.546-2.036-4.546-4.547
				v-13.391c0-2.51,2.035-4.546,4.546-4.546h239.446c2.512,0,4.547,2.036,4.547,4.546v13.391
				C274.27,270.718,272.235,272.755,269.723,272.755z"/>
		</g>
		<g>
			<path fill="#161616" d="M196.243,259.364h-89.413c-2.512,0-4.547-2.036-4.547-4.546V150.001c0-2.51,2.035-4.546,4.547-4.546
				h89.413c2.512,0,4.547,2.036,4.547,4.546v104.817C200.789,257.328,198.754,259.364,196.243,259.364z M111.376,250.271h80.321
				v-95.724h-80.321V250.271z"/>
		</g>
		<g>
			<path fill="#161616" d="M198.33,154.547h-93.625c-7.799,0-14.146-6.346-14.146-14.148c0-7.799,6.346-14.143,14.146-14.143h93.625
				c7.799,0,14.145,6.343,14.145,14.143C212.475,148.201,206.129,154.547,198.33,154.547z M104.704,135.349
				c-2.785,0-5.053,2.264-5.053,5.05c0,2.788,2.267,5.056,5.053,5.056h93.625c2.785,0,5.053-2.267,5.053-5.056
				c0-2.785-2.267-5.05-5.053-5.05H104.704z"/>
		</g>
		<g>
			<path fill="#161616" d="M189.404,135.349H113.63c-2.512,0-4.546-2.036-4.546-4.546v-48.75c0-1.551,0.79-2.993,2.096-3.83
				l37.887-24.245c1.495-0.956,3.407-0.956,4.902,0l37.887,24.245c1.305,0.838,2.096,2.279,2.096,3.83v48.75
				C193.95,133.313,191.915,135.349,189.404,135.349z M118.176,126.256h66.681V84.542l-33.341-21.338l-33.341,21.338V126.256z"/>
		</g>
		<g>
			<path fill="#161616" d="M140.451,45.597h6.519v13.977c0,0.367,0.055,0.716,0.136,1.054l4.41-2.821l4.41,2.821
				c0.081-0.337,0.136-0.687,0.136-1.054V45.597h6.521c2.511,0,4.546-2.036,4.546-4.546c0-2.51-2.035-4.547-4.546-4.547h-6.521
				v-4.712c0-2.51-2.035-4.546-4.546-4.546c-2.511,0-4.546,2.037-4.546,4.546v4.712h-6.519c-2.512,0-4.547,2.036-4.547,4.547
				C135.905,43.561,137.94,45.597,140.451,45.597z"/>
		</g>
		<g>
			<path fill="#161616" d="M106.81,259.364H60.125c-2.511,0-4.546-2.036-4.546-4.546V187.13c0-1.655,0.9-3.182,2.35-3.981
				l46.685-25.763c1.407-0.773,3.118-0.752,4.508,0.065c1.385,0.82,2.235,2.309,2.235,3.916v93.451
				C111.357,257.328,109.322,259.364,106.81,259.364z M64.671,250.271h37.592v-81.203l-37.592,20.746V250.271z"/>
		</g>
		<g>
			<path fill="#161616" d="M242.908,259.364h-46.686c-2.512,0-4.546-2.036-4.546-4.546v-93.451c0-1.607,0.85-3.096,2.235-3.916
				c1.388-0.817,3.102-0.838,4.508-0.065l46.685,25.763c1.45,0.799,2.35,2.326,2.35,3.981v15.279c0,2.51-2.035,4.546-4.546,4.546
				c-2.512,0-4.547-2.036-4.547-4.546v-12.594l-37.592-20.746v81.203h37.592v-27.717c0-2.51,2.035-4.546,4.547-4.546
				c2.511,0,4.546,2.036,4.546,4.546v32.263C247.454,257.328,245.419,259.364,242.908,259.364z"/>
		</g>
		<g>
			<path fill="#161616" d="M151.515,122.71c-1.123,0-2.248-0.414-3.124-1.243l-16.784-15.877c-0.124-0.118-0.243-0.243-0.354-0.376
				c-2.134-2.534-3.309-5.748-3.309-9.054c0-7.752,6.306-14.06,14.058-14.06c3.666,0,7.009,1.4,9.513,3.703
				c2.506-2.303,5.849-3.703,9.513-3.703c7.752,0,14.058,6.308,14.058,14.06c0,3.309-1.178,6.524-3.315,9.06
				c-0.11,0.127-0.226,0.252-0.351,0.37l-16.781,15.877C153.764,122.296,152.639,122.71,151.515,122.71z M138.073,99.188
				l13.443,12.719l13.444-12.716c0.5-0.651,1.035-1.663,1.035-3.031c0-2.738-2.227-4.967-4.965-4.967
				c-2.652,0-4.826,2.081-4.949,4.733c-0.074,1.566-0.947,2.984-2.313,3.753c-1.202,0.675-2.634,0.761-3.9,0.266
				c-0.26-0.101-0.513-0.225-0.756-0.376c-1.277-0.787-2.09-2.152-2.161-3.653c-0.124-2.649-2.297-4.724-4.948-4.724
				c-2.738,0-4.965,2.229-4.965,4.967C137.037,97.527,137.573,98.539,138.073,99.188z M168.303,102.287h0.03H168.303z"/>
		</g>
		<g>
			<path fill="#161616" d="M180.381,259.364h-57.69c-2.511,0-4.546-2.036-4.546-4.546v-39.852c0-18.414,14.98-33.394,33.392-33.394
				s33.391,14.98,33.391,33.394v39.852C184.927,257.328,182.892,259.364,180.381,259.364z M127.237,250.271h48.598v-35.306
				c0-13.4-10.9-24.301-24.298-24.301s-24.299,10.901-24.299,24.301V250.271z"/>
		</g>
		<g>
			<rect x="133.708" y="164.842" fill="#161616" width="35.652" height="6.69"/>
		</g>
		<g>
			<path fill="#161616" d="M268.364,74.375H265.1v-3.267c0-2.427-1.965-4.389-4.389-4.389c-2.421,0-4.387,1.962-4.387,4.389v3.267
				h-3.265c-2.427,0-4.39,1.965-4.39,4.386c0,2.427,1.963,4.387,4.39,4.387h3.265v3.268c0,2.421,1.966,4.387,4.387,4.387
				c2.424,0,4.389-1.965,4.389-4.387v-3.268h3.265c2.427,0,4.389-1.96,4.389-4.387C272.754,76.34,270.792,74.375,268.364,74.375z"/>
		</g>
		<g>
			<path fill="#161616" d="M239.26,94.988h-3.265V91.72c0-2.427-1.965-4.386-4.389-4.386c-2.422,0-4.387,1.959-4.387,4.386v3.268
				h-3.265c-2.427,0-4.389,1.966-4.389,4.387c0,2.427,1.963,4.387,4.389,4.387h3.265v3.268c0,2.421,1.965,4.387,4.387,4.387
				c2.424,0,4.389-1.966,4.389-4.387v-3.268h3.265c2.427,0,4.389-1.96,4.389-4.387C243.649,96.953,241.687,94.988,239.26,94.988z"/>
		</g>
		<g>
			<path fill="#161616" d="M48.987,163.8h-3.265v-3.268c0-2.427-1.965-4.393-4.389-4.393c-2.421,0-4.387,1.966-4.387,4.393v3.268
				h-3.265c-2.427,0-4.39,1.96-4.39,4.386c0,2.421,1.963,4.387,4.39,4.387h3.265v3.268c0,2.421,1.966,4.387,4.387,4.387
				c2.424,0,4.389-1.965,4.389-4.387v-3.268h3.265c2.427,0,4.389-1.965,4.389-4.387C53.376,165.76,51.414,163.8,48.987,163.8z"/>
		</g>
		<g>
			<path fill="#161616" d="M260.774,120.78c0,3.297-2.674,5.973-5.97,5.973c-3.299,0-5.973-2.676-5.973-5.973
				c0-3.297,2.674-5.973,5.973-5.973C258.099,114.807,260.774,117.483,260.774,120.78z"/>
		</g>
		<g>
			<path fill="#161616" d="M72.068,153.156c0,3.297-2.674,5.973-5.97,5.973c-3.299,0-5.973-2.676-5.973-5.973
				c0-3.297,2.674-5.973,5.973-5.973C69.394,147.183,72.068,149.859,72.068,153.156z"/>
		</g>
		<g>
			<path fill="#161616" d="M57.193,130.738c0,3.297-2.674,5.973-5.97,5.973c-3.299,0-5.973-2.676-5.973-5.973
				c0-3.297,2.674-5.973,5.973-5.973C54.519,124.765,57.193,127.44,57.193,130.738z"/>
		</g>
	</g>
</g>
</svg>
