<?xml version="1.0" encoding="utf-8"?>
<!-- Generator: Adobe Illustrator 22.0.0, SVG Export Plug-In . SVG Version: 6.00 Build 0)  -->
<svg version="1.1" xmlns="http://www.w3.org/2000/svg" xmlns:xlink="http://www.w3.org/1999/xlink" x="0px" y="0px"
	 viewBox="0 0 512 512" style="enable-background:new 0 0 512 512;" xml:space="preserve">
<style type="text/css">
	.st0{fill:#EFEFEF;}
	.st1{fill:#EDEDED;}
	.st2{fill:#E1902B;}
	.st3{fill:#827382;}
	.st4{fill:#98CDE6;}
	.st5{clip-path:url(#SVGID_2_);fill:#43B06D;}
	.st6{clip-path:url(#SVGID_2_);fill:#4D917B;}
	.st7{fill:#FFDBC5;}
	.st8{fill:#E8B494;}
	.st9{fill:#DB4646;}
	.st10{fill:#E7AD84;}
	.st11{fill:#9EC853;}
	.st12{fill:#EBB290;}
	.st13{fill:#2961A5;}
	.st14{fill:#D49670;}
	.st15{fill:#4D917B;}
	.st16{fill:#78BEDE;}
	.st17{fill:#D4CDC1;}
	.st18{fill:#A18FA1;}
	.st19{fill:#3D2A3D;}
	.st20{fill:#FF826E;}
	.st21{fill:#E6A585;}
	.st22{fill:#142A7A;}
	.st23{fill:#FFD66C;}
	.st24{fill:#00D3D5;}
	.st25{fill:#B9EAF0;}
	.st26{fill:#EDB87B;}
	.st27{clip-path:url(#SVGID_4_);}
	.st28{fill:#D9904C;}
	.st29{fill:#F7B58D;}
	.st30{fill:#F7C8AB;}
	.st31{fill:#BABABA;}
	.st32{fill:#163A63;}
	.st33{fill:#F5BB47;}
	.st34{fill:#FFE999;}
	.st35{clip-path:url(#SVGID_6_);}
	.st36{fill:#B3B3B3;}
	.st37{fill:#F2C9B1;}
	.st38{clip-path:url(#SVGID_8_);}
	.st39{fill:#F2D7C4;}
	.st40{fill:#5D5660;}
	.st41{fill:#3B2D3F;}
	.st42{fill:#997999;}
	.st43{fill:#170F17;}
	.st44{clip-path:url(#SVGID_10_);}
</style>
<g id="Layer_6">
</g>
<g id="Layer_9">
</g>
<g id="Layer_7">
	<g>
		<g>
			<g>
				<g>
					<g>
						<path class="st7" d="M386,340.2c-3.3-6.4-11.3-9-17.7-5.6l-35.2,15.7c-6.5,3.3-9,11.3-5.6,17.7l0,0c3.4,6.4,11.3,9,17.7,5.6
							l35.2-15.7C386.9,354.5,389.4,346.6,386,340.2L386,340.2z"/>
					</g>
					<path class="st7" d="M216.5,296H154v64h62.5c12.9,0,24.5-9.2,24.5-19.9v-24.8C241,304.4,229.5,296,216.5,296z"/>
					<g>
						<path class="st7" d="M279.4,341.4c4-8.2,0.6-18.1-7.6-22.1l-41.5-21.8c-8.2-4-18.1-0.6-22.1,7.6l0,0c-4,8.2-0.6,18.1,7.6,22.1
							l41.5,21.8C265.6,353,275.4,349.6,279.4,341.4L279.4,341.4z"/>
					</g>
					<g>
						<path class="st7" d="M305.2,370.1c4.2-10.9-1.3-23.1-12.2-27.3l-55.4-23.1c-10.9-4.2-23.1,1.3-27.3,12.2l0,0
							c-4.2,10.9,1.3,23.1,12.2,27.3l55.4,23.1C288.8,386.5,301,381,305.2,370.1L305.2,370.1z"/>
					</g>
					<path class="st7" d="M340.8,348.2c1.4,8.6,3.4,17,5.5,25.5l-53.2,11.2c-9.8,2.1-19.4-4.1-21.3-13.4c-2-9.3,4.3-18.8,14.1-20.9
						L340.8,348.2z"/>
					<path class="st8" d="M289.6,328c0.1,11.1,8.4,20.2,18.5,20.4l16.2,0.4c-0.2,2-0.6,3.4-1.2,4.9c-3.2,7.4-11.2,10.9-17.9,7.4
						l-36.6-18.8c-4.3-2.2-7.1-6.7-7.6-11.6C270.7,330.4,280.2,329.6,289.6,328z"/>
					<path class="st7" d="M324.4,331.6c-0.3,8.2-7.2,14.6-15.4,14.3l-44.5-1.6c-8.2-0.3-14.6-7.2-14.3-15.4l0,0
						c0.3-8.2,7.2-14.6,15.4-14.3l44.5,1.6C318.3,316.5,324.7,323.4,324.4,331.6L324.4,331.6z"/>
				</g>
				<rect x="138" y="296" class="st8" width="44" height="64"/>
				<path class="st0" d="M106,382h39.6c12.2,0,22.4-9.9,22.4-22v-68c0-12.2-10.2-22-22.4-22H106V382z"/>
			</g>
			<g>
				<g>
					<g>
						<path class="st0" d="M243,247.4c-0.7,0.5-1.4,1-2,1.6c-5.5,5.4-5.6,14.1-0.3,19.4c5.3,5.3,14,5.3,19.4-0.1
							c0.6-0.6,1.2-1.3,1.7-2L243,247.4z"/>
						<polygon class="st0" points="261.9,266.4 243,247.3 304.8,219.3 						"/>
					</g>
					<g>
						<path class="st0" d="M236.9,222.1c-0.8,0.2-1.6,0.4-2.4,0.8c-7.1,2.9-10.5,11-7.6,17.9c2.9,6.9,11,10.2,18,7.2
							c0.8-0.3,1.6-0.7,2.3-1.2L236.9,222.1z"/>
						<polygon class="st0" points="247.2,246.9 236.9,222.1 304.7,219.5 						"/>
					</g>
				</g>
				<g>
					<path class="st1" d="M337.1,179.7l4.7-26.7c1.9-10.5-5.1-20.5-15.6-22.3l-85.5-15.2c-6.9-1.2-13.5,1.4-17.8,6.3l106,70.5
						C333.1,189.4,336.2,185,337.1,179.7z"/>
					<path class="st1" d="M265.4,148.5c-5.2,10.3-19.6,13.6-32.1,7.3c-12.5-6.3-18.4-19.8-13.2-30.2c5.2-10.3,19.6-13.6,32.1-7.3
						C264.7,124.7,270.6,138.2,265.4,148.5z"/>
					<path class="st1" d="M295.7,173.1c-4.2,8.2-16.3,10.5-27.2,5c-10.8-5.5-16.2-16.6-12.1-24.8c4.2-8.2,16.3-10.5,27.2-5
						C294.4,153.7,299.8,164.8,295.7,173.1z"/>
					<path class="st1" d="M332.2,188.6c-3.1,8.1-14.2,11.4-24.9,7.4c-10.7-4-16.8-13.9-13.7-22c3.1-8.1,14.2-11.4,24.9-7.4
						S335.3,180.5,332.2,188.6z"/>
				</g>
				<g>
					<polygon class="st2" points="355.4,167.8 382,190.4 394.2,156 					"/>
					<path class="st0" d="M385.4,180c0,11.5-9.3,20.9-20.9,20.9c-11.5,0-20.9-9.3-20.9-20.9c0-11.5,9.3-20.9,20.9-20.9
						C376.1,159.1,385.4,168.5,385.4,180z"/>
					<path class="st3" d="M367.4,176c0.1,3.6,3,6.4,6.6,6.3c3.6-0.1,6.4-3,6.3-6.6c-0.1-3.5-3-6.4-6.6-6.3
						C370.1,169.5,367.3,172.4,367.4,176z"/>
				</g>
				<g>
					<path class="st0" d="M337.4,182.6l-5.7-31.9c-2.2-12.5-14.2-20.8-26.7-18.6L203,150.2c-8.2,1.5-14.6,7.1-17.4,14.4L333.5,200
						C337,195.1,338.6,188.9,337.4,182.6z"/>
					<path class="st0" d="M329.9,191.1c-1.7,14.2-23.9,23.3-49.6,20.3c-25.7-3-45.2-17-43.5-31.2c1.7-14.2,23.9-23.3,49.6-20.3
						C312,162.9,331.5,176.8,329.9,191.1z"/>
				</g>
				<path class="st0" d="M271,235.9c6.3,5.7,14.7,9.1,23.8,9.1h30c19.7,0,35.2-15.9,35.2-35.6v-17.9c0-7.2-1.9-14-5.6-19.6
					L271,235.9z"/>
				<path class="st0" d="M278.9,165.8c1.7,13.4-7.8,25.7-21.2,27.4l-48.6,6.1c-13.4,1.7-25.7-7.8-27.4-21.2l0,0
					c-1.7-13.4,7.8-25.7,21.2-27.4l48.6-6.1C264.9,142.9,277.2,152.4,278.9,165.8L278.9,165.8z"/>
			</g>
		</g>
	</g>
</g>
</svg>
